<?xml version="1.0" encoding="utf-8"?>
<!-- Generator: Adobe Illustrator 26.1.0, SVG Export Plug-In . SVG Version: 6.00 Build 0)  -->
<svg version="1.1" id="Слой_1" xmlns="http://www.w3.org/2000/svg" xmlns:xlink="http://www.w3.org/1999/xlink" x="0px" y="0px"
	 viewBox="0 0 1920 177.4" style="enable-background:new 0 0 1920 177.4;" xml:space="preserve">
<style type="text/css">
	.st0{fill:#323232;}
	.st1{fill:#CDF9FB;}
	.st2{fill:#35A8E0;}
</style>
<g>
	<rect x="-85" class="st0" width="2007" height="177.4"/>
	<path class="st1" d="M-21,171.9L135,5.4H39l-157,166.6H-21z"/>
	<path class="st2" d="M129,171.9L285,5.4h-96L32,171.9H129z"/>
	<path class="st1" d="M279,171.9L435,5.4h-96L182,171.9H279z"/>
	<path class="st2" d="M429,171.9L585,5.4h-96L332,171.9H429z"/>
	<path class="st1" d="M579,171.9L735,5.4h-96L482,171.9H579z"/>
	<path class="st2" d="M729,171.9L885,5.4h-96L632,171.9H729z"/>
	<path class="st1" d="M879,171.9l156-166.6h-96L782,171.9H879z"/>
	<path class="st2" d="M1028.9,171.9l156-166.6h-96L932,171.9H1028.9z"/>
	<path class="st1" d="M1178.9,171.9l156-166.6h-96l-157,166.6H1178.9z"/>
	<path class="st2" d="M1328.9,171.9l156-166.6h-96l-157,166.6H1328.9z"/>
	<path class="st1" d="M1478.9,171.9l156-166.6h-96l-157,166.6H1478.9z"/>
	<path class="st2" d="M1628.9,171.9l156-166.6h-96l-157,166.6H1628.9z"/>
	<path class="st1" d="M1778.9,171.9l156-166.6h-96l-157,166.6H1778.9z"/>
	<path class="st2" d="M1928.9,171.9l156-166.6h-96l-157,166.6H1928.9z"/>
</g>
</svg>
