<?xml version="1.0" encoding="utf-8"?>
<!-- Generator: Adobe Illustrator 26.1.0, SVG Export Plug-In . SVG Version: 6.00 Build 0)  -->
<svg version="1.1" id="Слой_1" xmlns="http://www.w3.org/2000/svg" xmlns:xlink="http://www.w3.org/1999/xlink" x="0px" y="0px"
	 viewBox="0 0 1920 182" style="enable-background:new 0 0 1920 182;" xml:space="preserve">
<style type="text/css">
	.st0{fill:#323232;}
	.st1{fill:#DDDB00;}
</style>
<rect x="-86" class="st0" width="2007" height="182"/>
<path class="st1" d="M-22,5.5l156,170.9H38L-119,5.5L-22,5.5z"/>
<path class="st1" d="M128,5.5l156,170.9h-96L31,5.5L128,5.5z"/>
<path class="st1" d="M278,5.5l156,170.9h-96L181,5.5L278,5.5z"/>
<path class="st1" d="M428,5.5l156,170.9h-96L331,5.5L428,5.5z"/>
<path class="st1" d="M578,5.5l156,170.9h-96L481,5.5L578,5.5z"/>
<path class="st1" d="M728,5.5l156,170.9h-96L631,5.5L728,5.5z"/>
<path class="st1" d="M878,5.5l156,170.9h-96L781,5.5L878,5.5z"/>
<path class="st1" d="M1027.9,5.5l156,170.9h-96L931,5.5L1027.9,5.5z"/>
<path class="st1" d="M1177.9,5.5l156,170.9h-96l-157-170.9L1177.9,5.5z"/>
<path class="st1" d="M1327.9,5.5l156,170.9h-96l-157-170.9L1327.9,5.5z"/>
<path class="st1" d="M1477.9,5.5l156,170.9h-96l-157-170.9L1477.9,5.5z"/>
<path class="st1" d="M1627.9,5.5l156,170.9h-96l-157-170.9L1627.9,5.5z"/>
<path class="st1" d="M1777.9,5.5l156,170.9h-96l-157-170.9L1777.9,5.5z"/>
<path class="st1" d="M1927.9,5.5l156,170.9h-96l-157-170.9L1927.9,5.5z"/>
</svg>
