<?xml version="1.0" encoding="utf-8"?>
<!-- Generator: Adobe Illustrator 26.1.0, SVG Export Plug-In . SVG Version: 6.00 Build 0)  -->
<svg version="1.1" id="Слой_1" xmlns="http://www.w3.org/2000/svg" xmlns:xlink="http://www.w3.org/1999/xlink" x="0px" y="0px"
	 viewBox="0 0 56.7 56.7" style="enable-background:new 0 0 56.7 56.7;" xml:space="preserve">
<style type="text/css">
	.st0{fill:#FFFFFF;}
	.st1{fill:#CDF9FB;}
</style>
<g>
	<path class="st0" d="M14.6,55.8L14.6,55.8C7,55.8,0.9,49.7,0.9,42.1v0c0-7.6,6.2-13.8,13.8-13.8h0c7.6,0,13.8,6.2,13.8,13.8v0
		C28.4,49.7,22.2,55.8,14.6,55.8z"/>
	<path class="st0" d="M14.6,28.4L14.6,28.4C7,28.4,0.9,22.2,0.9,14.6v0C0.9,7,7,0.9,14.6,0.9h0c7.6,0,13.8,6.2,13.8,13.8v0
		C28.4,22.2,22.2,28.4,14.6,28.4z"/>
	<path class="st0" d="M42.1,55.8L42.1,55.8c-7.6,0-13.8-6.2-13.8-13.8v0c0-7.6,6.2-13.8,13.8-13.8h0c7.6,0,13.8,6.2,13.8,13.8v0
		C55.8,49.7,49.7,55.8,42.1,55.8z"/>
	<path class="st0" d="M42.1,28.4L42.1,28.4c-7.6,0-13.8-6.2-13.8-13.8v0c0-7.6,6.2-13.8,13.8-13.8h0c7.6,0,13.8,6.2,13.8,13.8v0
		C55.8,22.2,49.7,28.4,42.1,28.4z"/>
	<path class="st1" d="M27.9,42.1L27.9,42.1c-7.6,0-13.8-6.2-13.8-13.8v0c0-7.6,6.2-13.8,13.8-13.8h0c7.6,0,13.8,6.2,13.8,13.8v0
		C41.6,36,35.5,42.1,27.9,42.1z"/>
</g>
</svg>
