<svg width="220" height="219" viewBox="0 0 220 219" fill="none" xmlns="http://www.w3.org/2000/svg">
<path d="M110.076 163.693C110.076 133.521 85.6133 109.062 55.4377 109.062C25.262 109.062 0.799805 133.521 0.799805 163.693C0.799805 193.865 25.262 218.323 55.4377 218.323C85.6133 218.323 110.076 193.865 110.076 163.693Z" fill="#DDDB00"/>
<path d="M110.076 54.6305C110.076 24.4589 85.6133 0 55.4377 0C25.262 0 0.799805 24.4589 0.799805 54.6305C0.799805 84.802 25.262 109.261 55.4377 109.261C85.6133 109.261 110.076 84.802 110.076 54.6305Z" fill="#DDDB00"/>
<path d="M219.153 163.693C219.153 133.521 194.69 109.062 164.515 109.062C134.339 109.062 109.877 133.521 109.877 163.693C109.877 193.865 134.339 218.323 164.515 218.323C194.69 218.323 219.153 193.865 219.153 163.693Z" fill="#DDDB00"/>
<path d="M219.153 54.6305C219.153 24.4589 194.69 0 164.515 0C134.339 0 109.877 24.4589 109.877 54.6305C109.877 84.802 134.339 109.261 164.515 109.261C194.69 109.261 219.153 84.802 219.153 54.6305Z" fill="#DDDB00"/>
<path d="M162.707 109.201C162.707 79.0297 138.245 54.5708 108.07 54.5708C77.8938 54.5708 53.4316 79.0297 53.4316 109.201C53.4316 139.373 77.8938 163.832 108.07 163.832C138.245 163.832 162.707 139.373 162.707 109.201Z" fill="#CDF9FB"/>
</svg>
